<svg width="78" height="116" viewBox="0 0 78 116" fill="none" xmlns="http://www.w3.org/2000/svg">
<path d="M20.8861 22.1489C21.1465 22.0364 21.4417 22.0936 21.7151 22.1222C22.6506 22.2764 23.529 22.6224 24.3871 22.9815C24.2494 23.0617 24.0992 23.1212 23.9469 23.1747C23.3227 23.4086 22.6891 23.6449 22.015 23.7269C21.7281 23.7588 21.4407 23.8132 21.1502 23.7982C20.8061 23.7808 20.501 23.5342 20.4283 23.2333C20.3888 22.9731 20.4361 22.703 20.5618 22.4663C20.6325 22.3355 20.7344 22.2089 20.8861 22.1489Z" fill="white" stroke="white" stroke-width="0.0938"/>
<path d="M26.4359 29.2695C26.8813 29.1935 27.3579 29.2357 27.7685 29.4134C28.2243 29.6103 28.5502 30.0439 28.5518 30.5034C28.6037 31.0749 28.2311 31.607 27.7457 31.9454C26.7857 32.6121 25.5108 32.8184 24.3263 32.7073C23.2307 32.6069 22.1086 32.6341 21.0405 32.8929C21.3072 32.5577 21.6289 32.2624 21.9308 31.9534C22.5618 31.3318 23.2536 30.7584 24.0119 30.2643C24.7395 29.8011 25.5456 29.3979 26.4359 29.2695Z" fill="white" stroke="white" stroke-width="0.0938"/>
<path d="M39.561 35.1879C40.2814 33.8823 40.6706 32.4449 40.838 31C40.8765 31.3929 40.8655 31.7909 40.8115 32.1823C40.6083 34.7177 39.5002 37.2343 37.508 39.0589C36.4483 40.0514 35.1599 40.8296 33.78 41.4128C32.7254 41.8563 31.6194 42.1925 30.5061 42.4939C28.7983 42.9458 27.0374 43.2426 25.2604 43.3462C24.051 43.4287 22.8374 43.3992 21.6259 43.4231C20.574 43.4376 19.4836 43.4972 18.5184 43.9116C17.9036 44.168 17.3942 44.5792 16.9005 44.9894C15.7061 46.0222 14.6427 47.1708 13.4375 48.1937C12.5513 48.9448 11.4848 49.5735 10.2738 49.7816C9.73849 49.8768 9.18185 49.8571 8.65172 49.7474C8.40485 49.6907 8.15277 49.6218 7.948 49.4806C8.20787 49.5491 8.45578 49.67 8.73228 49.6729C9.49422 49.7174 10.2063 49.3892 10.8247 49.0221C12.0025 48.295 13.0082 47.37 13.9884 46.4413C15.0341 45.4629 16.0309 44.44 17.1536 43.5319C17.389 43.3518 17.6208 43.1667 17.8734 43.0059C18.3812 42.6786 18.968 42.4583 19.5766 42.3397C20.7288 42.1207 21.9113 42.1775 23.0807 42.1709C23.6363 42.1807 24.1893 42.1198 24.7443 42.125C26.1726 42.0532 27.6003 41.8962 28.9942 41.5975C30.4609 41.2952 31.9001 40.8807 33.2904 40.3627C34.7035 39.8207 36.0377 39.0847 37.1536 38.1288C38.1452 37.291 38.9695 36.2915 39.561 35.1879Z" fill="white" stroke="white" stroke-width="0.0938"/>
<path d="M45.0912 44.653C46.0127 43.1992 46.8053 41.653 47.1608 40C47.0049 42.0679 46.5033 44.127 45.5709 46.0271C44.7762 47.6604 43.716 49.178 42.545 50.6121C41.3683 52.0499 40.0794 53.4109 38.7447 54.7306C37.4833 55.9664 36.1876 57.174 34.8591 58.3517C34.2084 58.9532 33.5193 59.5186 32.8576 60.1102C32.0016 60.8383 31.1524 61.5729 30.2844 62.2893C27.2746 64.7768 24.7066 67.7172 22.8496 71.0022C21.873 72.7204 21.0861 74.5258 20.4941 76.3818C19.8356 78.4212 19.4318 80.52 19.1506 82.6269C19.1402 82.7057 19.1251 82.7849 19.1101 82.865C18.0561 82.8711 17.002 82.8768 15.948 82.8618C16.5597 78.8107 17.9168 74.8455 20.016 71.2188C21.8054 68.1101 24.1391 65.2602 26.8848 62.7839C27.6078 62.1224 28.3806 61.5078 29.1452 60.8861C32.0328 58.5261 34.8404 56.0831 37.5015 53.515C38.9079 52.1526 40.2665 50.7494 41.5482 49.29C42.8345 47.8132 44.0564 46.2849 45.0912 44.653Z" fill="white" stroke="white" stroke-width="0.0938"/>
<path d="M70.902 43.1879C70.9758 43.1729 70.9862 43.2877 70.9332 43.3154C70.8579 43.329 70.8469 43.2141 70.902 43.1879Z" fill="white" stroke="white" stroke-width="0.0938"/>
<path d="M29.7311 12.4007C29.281 11.7299 28.9546 10.9976 28.6875 10.2531C27.8153 7.79606 27.6537 5.18571 27.7691 2.62364C27.8221 2.28188 27.7769 1.92933 27.885 1.59506C27.4941 1.37003 27.0768 1.18531 26.6605 1.00342C26.5914 1.30862 26.5945 1.62178 26.5732 1.9312C26.5586 2.0995 26.5617 2.26827 26.5695 2.43658C26.5425 2.61285 26.5144 2.78912 26.5139 2.96727C26.4978 3.38358 26.5025 3.80035 26.5118 4.21667C26.5009 4.49326 26.5519 4.76799 26.5529 5.04459C26.555 5.23211 26.5612 5.41917 26.5825 5.60529C26.3117 5.69015 26.0326 5.75063 25.7582 5.82376C23.5613 6.41727 21.4538 7.29349 19.5484 8.4463C19.6851 8.73744 19.8852 8.9981 20.0567 9.27235C21.2121 11.0717 22.3799 12.8644 23.5348 14.6637C23.5795 14.7378 23.6211 14.8133 23.6632 14.8883C23.3576 15.0795 23.0187 15.2193 22.7011 15.3922C20.8878 16.3397 19.0931 17.3247 17.4102 18.4541C17.1088 18.6603 16.7626 18.8441 16.575 19.1526C16.3177 19.5675 16.2023 20.0368 16.0818 20.4948C15.7616 21.8337 15.6561 23.205 15.3796 24.5505C15.3068 24.8365 15.2621 25.1436 15.0688 25.3883C14.7169 25.8177 14.3183 26.2129 13.9534 26.6325C12.1401 28.692 10.3298 30.7548 8.61314 32.8809C7.43386 34.3417 6.27381 35.8161 5.17976 37.3299C4.3752 38.4359 3.59872 39.5587 2.79624 40.666C2.07693 41.5722 1.35241 42.5619 1.26458 43.7062C1.23911 43.9332 1.23911 44.1619 1.26562 44.3888C1.28901 44.7578 1.41998 45.1113 1.55303 45.4582C2.0842 46.7953 2.87472 48.0653 3.98384 49.0831C5.03371 50.0798 6.3658 50.8219 7.80027 51.2781C7.95931 51.3315 8.12666 51.3587 8.29454 51.3807C7.98685 51.2138 7.65058 51.0957 7.3429 50.9293C6.46247 50.4731 5.66259 49.8918 4.9807 49.2129C3.90432 48.1394 3.13459 46.8328 2.65072 45.4573C2.40592 44.7859 2.41631 44.0513 2.62941 43.3743C2.85445 42.6294 3.30091 41.958 3.79726 41.3359C4.37624 40.5694 4.92145 39.7827 5.47704 39.0026C8.73372 34.3614 12.4779 30.0188 16.3058 25.754C16.4851 25.5266 16.5199 25.2387 16.5937 24.9748C16.892 23.5702 16.9877 22.1352 17.34 20.7391C17.4606 20.2773 17.5983 19.8061 17.892 19.4062C18.0926 19.1353 18.4429 19.0134 18.747 18.8619C19.6638 18.4297 20.7402 18.2258 21.7625 18.4273C21.869 18.4363 22.0047 18.5005 22.0889 18.41C22.8706 17.7462 23.7146 17.1433 24.5826 16.5741C27.8782 14.4185 31.546 12.7561 35.3562 11.4795C33.4493 11.533 31.5049 11.7294 29.7311 12.4007ZM24.8393 14.3524C23.6912 12.5808 22.5478 10.8063 21.4049 9.03185C22.0213 8.58789 22.7224 8.25081 23.4324 7.94561C24.4895 7.49884 25.6028 7.1655 26.7348 6.91094C26.7327 6.82046 26.9676 8.04688 27.1402 8.73979C27.4952 10.0548 28.0009 11.3614 28.8605 12.4819C27.5009 13.0707 26.1704 13.713 24.8393 14.3524Z" fill="white" stroke="white" stroke-width="0.0938"/>
<path d="M14.7693 84.5242C15.1981 84.4876 15.629 84.4703 16.0598 84.4778C18.817 84.4764 21.5742 84.4801 24.3315 84.4764C23.9744 84.5551 23.6064 84.5997 23.2629 84.7239C22.4989 84.9799 21.7967 85.489 21.5134 86.196C18.8815 86.1941 16.249 86.1969 13.6171 86.1946C13.2517 86.196 12.8536 86.1571 12.5287 86.3413C12.3624 86.4182 12.2564 86.5607 12.1836 86.7117C12.7299 86.7487 13.2777 86.7197 13.825 86.7286C15.471 86.7286 17.1165 86.7281 18.7625 86.7286C19.6413 86.7215 20.5207 86.7431 21.3996 86.7164C24.437 86.7089 27.4753 86.7183 30.5127 86.7112C30.6125 86.714 30.705 86.7525 30.7985 86.7811C30.218 86.8251 29.6348 86.7928 29.0533 86.8026C26.8184 86.8026 24.5835 86.8026 22.3487 86.8026C22.0534 86.8008 21.7567 86.8162 21.463 86.7825C20.9651 86.7112 20.4594 86.7595 19.9579 86.7464C17.3628 86.7436 14.7673 86.7515 12.1722 86.7422C12.0932 86.7375 12.0147 86.729 11.9368 86.7234C12.0402 86.0441 12.5054 85.4323 13.1363 85.0591C13.6223 84.7633 14.1935 84.6006 14.7693 84.5242Z" fill="white" stroke="white" stroke-width="0.0938"/>
<path d="M48.4691 86.1602C48.4759 86.1714 48.4889 86.1939 48.4956 86.2052C48.6027 86.3885 48.6588 86.5905 48.717 86.7903C43.2541 86.7874 37.7906 86.7898 32.3276 86.7888C31.8183 86.7837 31.3079 86.7987 30.7986 86.7813C30.705 86.7527 30.6125 86.7143 30.5127 86.7115C27.4754 86.7185 24.437 86.7091 21.3997 86.7166C21.4272 86.5408 21.4709 86.3683 21.5135 86.1963C30.2809 86.1963 39.0484 86.1953 47.8158 86.1967C48.0336 86.1967 48.256 86.2122 48.4691 86.1602Z" fill="white" stroke="white" stroke-width="0.0938"/>
<path d="M12.5288 86.3416C12.8537 86.1574 13.2518 86.1963 13.6172 86.1949C16.2491 86.1972 18.8816 86.1944 21.5135 86.1963C21.4709 86.3684 21.4272 86.5409 21.3997 86.7167C20.5208 86.7434 19.6414 86.7219 18.7625 86.7289C17.1165 86.7284 15.4711 86.7289 13.825 86.7289C13.2778 86.72 12.73 86.749 12.1837 86.712C12.2565 86.5611 12.3625 86.4185 12.5288 86.3416Z" fill="white" stroke="white" stroke-width="0.0938"/>
<path d="M48.4956 86.2052C49.0138 86.1869 49.532 86.1991 50.0507 86.1958C55.3348 86.1954 60.6185 86.1968 65.9026 86.1954C66.2685 86.1991 66.6692 86.1513 66.9972 86.3346C67.1838 86.427 67.282 86.6046 67.4114 86.7495L67.3584 86.7767C66.4754 86.8011 65.5908 86.779 64.7072 86.7865C59.3773 86.7889 54.0469 86.7819 48.717 86.7903C48.6588 86.5906 48.6027 86.3885 48.4956 86.2052Z" fill="white" stroke="white" stroke-width="0.0938"/>
<path d="M12.1722 86.7422C14.7673 86.7516 17.3628 86.7436 19.9579 86.7464C20.4594 86.7595 20.9651 86.7112 21.463 86.7825C21.4188 87.0235 21.4017 87.2682 21.3788 87.5124C18.618 87.5115 15.8566 87.5134 13.0958 87.5115C12.642 87.5078 12.102 87.204 12.1722 86.7422Z" fill="white" stroke="white" stroke-width="0.0938"/>
<path d="M21.4631 86.7827C21.7568 86.8164 22.0535 86.8009 22.3487 86.8028C24.5836 86.8028 26.8185 86.8028 29.0533 86.8028C29.6349 86.793 30.2181 86.8253 30.7986 86.7812C31.308 86.7986 31.8183 86.7836 32.3277 86.7888C37.7906 86.7897 43.2541 86.7873 48.7171 86.7902C48.7493 87.0278 48.7597 87.2674 48.7545 87.5074C39.6295 87.5149 30.5039 87.5051 21.3789 87.5126C21.4018 87.2684 21.4189 87.0236 21.4631 86.7827Z" fill="white" stroke="white" stroke-width="0.0938"/>
<path d="M48.717 86.79C54.0469 86.7815 59.3774 86.7886 64.7073 86.7862C65.5908 86.7787 66.4754 86.8008 67.3584 86.7764C67.4068 87.0637 67.1635 87.3033 66.8922 87.4158C66.6038 87.5537 66.268 87.5063 65.9552 87.5129C60.5499 87.5119 55.1441 87.5124 49.7388 87.5124C49.4104 87.511 49.0824 87.5171 48.7545 87.5072C48.7597 87.2672 48.7493 87.0277 48.717 86.79Z" fill="white" stroke="white" stroke-width="0.0938"/>
<path d="M77.626 43.5786C77.4446 39.378 76.5038 35.2042 74.8417 31.2765C74.1302 29.5611 73.2695 27.8987 72.3184 26.2812C70.5035 23.2157 68.2988 20.332 65.7136 17.7531C63.3155 15.3523 60.5906 13.2131 57.5989 11.4316C54.9571 9.8587 52.1157 8.55587 49.1434 7.57324C45.1403 6.23852 40.9201 5.45701 36.6671 5.17244C36.3958 5.15509 36.1619 5.02055 35.9264 4.91131C33.6687 3.83304 31.3886 2.79321 29.1304 1.71682C28.7323 1.53023 27.3711 1.14064 26.948 1C27.3336 1.33668 29.8143 2.31027 30.0955 2.48238C30.4895 2.66991 30.886 2.85369 31.2535 3.08247C32.9962 4.10073 34.7337 5.12697 36.4566 6.17242C38.1889 7.22538 39.9128 8.29052 41.5833 9.4227C42.2813 9.90464 42.9824 10.3889 43.6108 10.9449C42.7548 11.1906 41.8904 11.4095 41.0313 11.6458C42.0999 11.8619 43.1555 12.1287 44.1851 12.4662C47.2718 13.462 50.175 14.8942 52.834 16.6181C56.3479 18.9059 59.4128 21.7384 61.9372 24.9123C63.091 26.3413 64.1092 27.8551 65.0785 29.3904C67.2718 32.854 69.0649 36.5295 70.3278 40.3546C70.6381 41.2725 70.8917 42.2059 71.1807 43.1285C71.1755 42.8374 71.1048 42.5519 71.0742 42.2626C70.9172 41.1211 70.7644 39.9781 70.5503 38.844C70.2083 36.9857 69.6459 35.162 68.8809 33.4096C68.067 31.5273 67.0654 29.7167 66.0062 27.9385C65.5686 27.2156 65.132 26.4913 64.6502 25.7913C63.5546 24.165 62.2916 22.6334 60.918 21.1899C58.101 18.2242 54.821 15.6396 51.3392 13.3284C48.1257 11.1883 44.7219 9.29237 41.246 7.5212C40.6748 7.21834 40.0807 6.94971 39.5158 6.63795C44.4699 7.23382 49.3019 8.65901 53.6739 10.846C57.4316 12.7157 60.8442 15.1314 63.8145 17.9209C66.2401 20.204 68.4006 22.7272 70.1589 25.4655C70.6615 26.2297 71.0674 27.0398 71.4645 27.8513C73.255 31.5113 74.6318 35.3448 75.4181 39.2852C75.8225 41.2758 76.0652 43.2922 76.1691 45.3123C76.1634 45.7975 76.2149 46.2808 76.219 46.7661C76.2242 47.3437 76.2227 47.9217 76.1847 48.4988C76.1546 48.8696 76.1894 49.2423 76.1369 49.6122C76.0564 51.0623 75.8937 52.5095 75.6629 53.9469C74.9862 58.2459 73.6755 62.439 72.1755 66.5566C71.4957 68.4074 70.7914 70.2508 70.1111 72.1012C69.3528 74.1181 68.6356 76.1494 68.0613 78.216C67.4963 80.2726 67.0831 82.3757 67.0467 84.4985C66.9152 84.5088 66.7848 84.5201 66.6543 84.5314C67.5067 84.5365 68.397 84.8361 68.9329 85.4544C69.3803 85.9654 69.5306 86.6312 69.5487 87.2688C69.5503 87.9884 69.5482 88.7085 69.5493 89.4281C69.5461 89.7568 69.5628 90.0868 69.5217 90.4145C69.4765 90.9536 69.2769 91.4923 68.8918 91.9133C68.3918 92.4552 67.6159 92.7248 66.8529 92.7858L66.4252 92.8994C67.2752 92.8798 68.1433 92.944 68.9713 92.7286C69.5296 92.5833 70.0563 92.3463 70.474 91.9758C70.904 91.5944 71.1676 91.0753 71.2747 90.5432C71.3345 90.2459 71.326 89.9381 71.3331 89.6364C71.3407 89.3122 71.3436 88.988 71.3419 88.6637C71.3393 88.1579 71.3253 87.6521 71.3001 87.1468C71.289 86.9252 71.2939 86.7113 71.2123 86.5032C71.1282 86.2885 71.0576 86.0646 70.9134 85.8736C70.7289 85.5955 70.4847 85.3495 70.1948 85.1577C69.7978 84.8838 69.3284 84.7074 68.8441 84.6045C68.5115 84.5339 68.1697 84.5119 67.8291 84.5026C67.6794 84.4985 67.4453 84.5371 67.3053 84.4931C67.2303 84.4695 67.2418 84.4579 67.2475 84.3798C67.2534 84.2981 67.2621 84.2165 67.2701 84.135C67.332 83.508 67.4232 82.8835 67.5376 82.2626C67.7619 81.0452 68.0747 79.8423 68.4303 78.651C68.9661 76.8803 69.5908 75.1326 70.2478 73.3956C71.0019 71.4636 71.7327 69.5241 72.492 67.594C73.9171 63.8871 75.2544 60.1441 76.2066 56.312C77.2424 52.141 77.8297 47.8575 77.626 43.5786Z" fill="white" stroke="white" stroke-width="0.0938"/>
<path d="M15.5365 92.8134C16.5874 92.8087 17.6388 92.8026 18.6903 92.8176C19.2266 93.7163 19.6331 94.6915 19.7505 95.7125C19.9636 97.2099 19.5437 98.7303 18.803 100.068C17.7537 100.079 16.7043 100.073 15.655 100.072C16.13 99.2066 16.4751 98.2774 16.5988 97.3159C16.7319 96.2095 16.5926 95.0745 16.1555 94.0314C15.985 93.6113 15.7761 93.2049 15.5365 92.8134Z" fill="white" stroke="white" stroke-width="0.0938"/>
<path d="M8.9379 106.522C9.36928 106.472 9.80534 106.505 10.2393 106.497C14.6394 106.496 19.04 106.497 23.4401 106.496C23.754 106.497 24.069 106.483 24.3819 106.517C23.5046 106.594 22.6252 106.839 21.9162 107.323C21.4693 107.613 21.1081 108.01 20.8825 108.464C16.2433 108.466 11.6041 108.467 6.96446 108.463C6.37456 108.474 5.72696 108.492 5.25037 108.85C5.41824 108.26 5.85794 107.752 6.37923 107.376C7.10739 106.86 8.02368 106.596 8.9379 106.522Z" fill="white" stroke="white" stroke-width="0.0938"/>
<path d="M20.6154 109.316C20.6616 109.016 20.7775 108.731 20.9314 108.464H20.8825C16.2434 108.466 11.6042 108.467 6.96449 108.463C6.37459 108.474 5.727 108.492 5.2504 108.851C5.14386 108.985 5.13554 109.153 5.12878 109.313L5.19219 109.317C5.29718 109.32 5.40269 109.325 5.50819 109.326C10.2383 109.325 14.9679 109.326 19.698 109.326C20.0097 109.326 20.3234 109.311 20.6336 109.351V109.316C20.6275 109.316 20.6214 109.316 20.6154 109.316Z" fill="white" stroke="white" stroke-width="0.0938"/>
<path d="M50.5813 108.463C40.698 108.466 30.8147 108.465 20.9314 108.464C20.7775 108.731 20.6616 109.016 20.6154 109.316C20.6214 109.316 20.6275 109.316 20.6335 109.316V109.351C20.6363 109.352 20.6391 109.352 20.6419 109.352C20.9147 109.386 21.1907 109.371 21.4651 109.372C22.9032 109.372 24.3414 109.372 25.7789 109.372C26.7192 109.363 27.6599 109.393 28.5996 109.356C29.4602 109.389 30.3225 109.363 31.1842 109.371C37.7703 109.368 44.3569 109.378 50.943 109.366C50.876 109.05 50.7757 108.737 50.5813 108.463Z" fill="white" stroke="white" stroke-width="0.0938"/>
<path d="M50.5813 108.464L50.6276 108.464C57.5905 108.467 64.5529 108.465 71.5158 108.465C72.1873 108.474 72.865 108.428 73.5303 108.536C73.7922 108.575 74.0339 108.692 74.2304 108.853C74.3405 108.999 74.406 109.172 74.4273 109.348C74.3899 109.353 74.3146 109.362 74.2771 109.367C68.2461 109.377 62.2146 109.368 56.1835 109.371C54.4367 109.368 52.6899 109.378 50.943 109.367C50.876 109.05 50.7757 108.737 50.5813 108.464Z" fill="white" stroke="white" stroke-width="0.0938"/>
<path d="M5.19214 109.316C5.29713 109.32 5.40263 109.324 5.50814 109.326C10.2383 109.325 14.9679 109.326 19.698 109.326C20.0124 109.326 20.329 109.31 20.6418 109.352C20.6361 109.492 20.6314 109.633 20.6283 109.774C18.4647 109.792 16.3005 109.777 14.1363 109.782C11.5376 109.781 8.9384 109.783 6.33972 109.781C5.90626 109.785 5.46448 109.627 5.19214 109.316Z" fill="white" stroke="white" stroke-width="0.0938"/>
<path d="M20.6419 109.352C20.9148 109.385 21.1908 109.37 21.4652 109.372C22.9033 109.372 24.3414 109.372 25.779 109.372C26.7192 109.362 27.6599 109.393 28.5996 109.356C29.4603 109.389 30.3225 109.362 31.1843 109.371C37.7704 109.368 44.357 109.377 50.9431 109.366C50.9655 109.502 50.9847 109.638 51.0018 109.776C43.79 109.782 36.5776 109.776 29.3652 109.779C26.4531 109.775 23.5405 109.784 20.6284 109.774C20.6315 109.633 20.6362 109.492 20.6419 109.352Z" fill="white" stroke="white" stroke-width="0.0938"/>
<path d="M50.943 109.366C52.6898 109.377 54.4367 109.368 56.1835 109.371C62.2145 109.368 68.2461 109.377 74.2771 109.366C74.0281 109.673 73.5807 109.776 73.1794 109.783C67.0985 109.783 61.0171 109.783 54.9361 109.783C53.6248 109.778 52.313 109.792 51.0017 109.776C50.9846 109.638 50.9653 109.502 50.943 109.366Z" fill="white" stroke="white" stroke-width="0.0938"/>
</svg>
